<svg xmlns="http://www.w3.org/2000/svg" width="1120" height="350" font-family="Segoe UI, system-ui, sans-serif" font-size="11">
<rect width="100%" height="100%" fill="#ffffff"/>
<text x="10" y="20" font-size="14" font-weight="600" fill="#24211d">gql-batched · web · u_small · localhost</text>
<text x="10" y="38" fill="#6d675f">run 162 · rid 924b6016-bb11-4650-963f-a0ef84585c32 · t_data 49.4 ms · 1 client req · product calls 1</text>
<line x1="380" y1="56" x2="380" y2="280" stroke="#eeeae4"/>
<text x="380" y="52" text-anchor="middle" fill="#6d675f">0 ms</text>
<line x1="504.9024199845991" y1="56" x2="504.9024199845991" y2="280" stroke="#eeeae4"/>
<text x="504.9024199845991" y="52" text-anchor="middle" fill="#6d675f">20 ms</text>
<line x1="629.8048399691982" y1="56" x2="629.8048399691982" y2="280" stroke="#eeeae4"/>
<text x="629.8048399691982" y="52" text-anchor="middle" fill="#6d675f">40 ms</text>
<line x1="754.7072599537972" y1="56" x2="754.7072599537972" y2="280" stroke="#eeeae4"/>
<text x="754.7072599537972" y="52" text-anchor="middle" fill="#6d675f">60 ms</text>
<line x1="879.6096799383963" y1="56" x2="879.6096799383963" y2="280" stroke="#eeeae4"/>
<text x="879.6096799383963" y="52" text-anchor="middle" fill="#6d675f">80 ms</text>
<line x1="1004.5120999229954" y1="56" x2="1004.5120999229954" y2="280" stroke="#eeeae4"/>
<text x="1004.5120999229954" y="52" text-anchor="middle" fill="#6d675f">100 ms</text>
<text x="10" y="77" fill="#24211d">tải :5173/styles.css</text>
<rect x="468.05620608681585" y="68" width="64.32474629090524" height="10" rx="2" fill="#b9b2a6"><title>tải :5173/styles.css: 14.1 → 24.4 ms (10.3 ms)</title></rect>
<rect x="0" y="82" width="1120" height="18" fill="#faf9f7"/>
<text x="10" y="95" fill="#24211d">tải :5173/render.js</text>
<rect x="493.66120218714843" y="86" width="51.83450429244533" height="10" rx="2" fill="#b9b2a6"><title>tải :5173/render.js: 18.2 → 26.5 ms (8.3 ms)</title></rect>
<text x="10" y="113" fill="#24211d">tải :5173/adapters/baseline.js</text>
<rect x="616.6900858673255" y="104" width="26.854020301341734" height="10" rx="2" fill="#b9b2a6"><title>tải :5173/adapters/baseline.js: 37.9 → 42.2 ms (4.3 ms)</title></rect>
<rect x="0" y="118" width="1120" height="18" fill="#faf9f7"/>
<text x="10" y="131" fill="#24211d">tải :5173/adapters/bff.js</text>
<rect x="617.3145979707383" y="122" width="31.22560499614974" height="10" rx="2" fill="#b9b2a6"><title>tải :5173/adapters/bff.js: 38.0 → 43.0 ms (5.0 ms)</title></rect>
<text x="10" y="149" fill="#24211d">tải :5173/adapters/graphql.js</text>
<rect x="617.3145979707383" y="140" width="38.719750196388986" height="10" rx="2" fill="#b9b2a6"><title>tải :5173/adapters/graphql.js: 38.0 → 44.2 ms (6.2 ms)</title></rect>
<rect x="0" y="154" width="1120" height="18" fill="#faf9f7"/>
<text x="10" y="167" fill="#24211d">tải :5173/adapters/http.js</text>
<rect x="657.907884465733" y="158" width="18.110850894277178" height="10" rx="2" fill="#b9b2a6"><title>tải :5173/adapters/http.js: 44.5 → 47.4 ms (2.9 ms)</title></rect>
<text x="10" y="185" fill="#24211d">browser fetch :4020/graphql</text>
<rect x="760.9523809530272" y="176" width="115.53473848575413" height="10" rx="2" fill="#2f6db0"><title>browser fetch :4020/graphql: 61.0 → 79.5 ms (18.5 ms)</title></rect>
<rect x="0" y="190" width="1120" height="18" fill="#faf9f7"/>
<text x="10" y="203" fill="#24211d">graphql OPTIONS /graphql</text>
<rect x="772.8739144229928" y="194" width="3.172875195165261" height="10" rx="2" fill="#8a6fc4"><title>graphql OPTIONS /graphql: 62.9 → 63.4 ms (0.5 ms)</title></rect>
<text x="10" y="221" fill="#24211d">graphql POST /graphql</text>
<rect x="782.6913788063038" y="212" width="87.98210626478624" height="10" rx="2" fill="#6b4f3a"><title>graphql POST /graphql: 64.5 → 78.6 ms (14.1 ms)</title></rect>
<rect x="0" y="226" width="1120" height="18" fill="#faf9f7"/>
<text x="10" y="239" fill="#24211d">user GET /users/u_small</text>
<rect x="795.2197379983625" y="232" width="15.862607338044086" height="6" rx="2" fill="#3f8f5f" opacity="0.28"><title>Bên gọi chờ: 66.5 → 69.0 ms (2.5 ms)</title></rect>
<rect x="798.4612241420058" y="230" width="6.606471994546723" height="10" rx="2" fill="#3f8f5f"><title>user GET /users/u_small: 67.0 → 68.1 ms (1.1 ms)</title></rect>
<rect x="798.6474312068008" y="228" width="2" height="14" fill="#111"><title>DB query @ 67.20 ms</title></rect>
<text x="10" y="257" fill="#24211d">order GET /users/u_small/orders</text>
<rect x="812.3374072997185" y="250" width="21.945355191294084" height="6" rx="2" fill="#c08321" opacity="0.28"><title>Bên gọi chờ: 69.2 → 72.7 ms (3.5 ms)</title></rect>
<rect x="815.8091212926987" y="248" width="12.691500780661613" height="10" rx="2" fill="#c08321"><title>order GET /users/u_small/orders: 69.8 → 71.8 ms (2.0 ms)</title></rect>
<rect x="816.6768637790407" y="246" width="2" height="14" fill="#111"><title>DB query @ 70.08 ms</title></rect>
<rect x="820.4428425066037" y="246" width="2" height="14" fill="#111"><title>DB query @ 70.69 ms</title></rect>
<rect x="0" y="262" width="1120" height="18" fill="#faf9f7"/>
<text x="10" y="275" fill="#24211d">product GET /products?ids=p_001,p_002,p_003,p_004,p_005,p_006</text>
<rect x="843.8191598368524" y="268" width="19.2224824356299" height="6" rx="2" fill="#b5473a" opacity="0.28"><title>Bên gọi chờ: 74.3 → 77.3 ms (3.1 ms)</title></rect>
<rect x="847.9785080023552" y="266" width="10.76582016004943" height="10" rx="2" fill="#b5473a"><title>product GET /products?ids=p_001,p_002,p_003,p_004,p_005,p_006: 74.9 → 76.7 ms (1.7 ms)</title></rect>
<rect x="849.5201624715241" y="264" width="2" height="14" fill="#111"><title>DB query @ 75.34 ms</title></rect>
<line x1="757.2053083499995" y1="56" x2="757.2053083499995" y2="286" stroke="#2f6db0" stroke-width="1.5" stroke-dasharray="4 3"/>
<text x="760.2053083499995" y="298" text-anchor="start" fill="#2f6db0" font-weight="600">data-start 60.4 ms</text>
<line x1="1065.7142857142858" y1="56" x2="1065.7142857142858" y2="286" stroke="#b5473a" stroke-width="1.5" stroke-dasharray="4 3"/>
<text x="1062.7142857142858" y="312" text-anchor="end" fill="#b5473a" font-weight="600">screen-complete 109.8 ms</text>
<rect x="10" y="328" width="12" height="10" fill="#b9b2a6"/><text x="26" y="337" fill="#24211d">tải trang</text>
<rect x="130" y="328" width="12" height="10" fill="#2f6db0"/><text x="146" y="337" fill="#24211d">browser fetch</text>
<rect x="250" y="328" width="12" height="10" fill="#8a6fc4"/><text x="266" y="337" fill="#24211d">CORS preflight</text>
<rect x="370" y="328" width="12" height="10" fill="#6b4f3a"/><text x="386" y="337" fill="#24211d">composer</text>
<rect x="490" y="328" width="12" height="10" fill="#3f8f5f"/><text x="506" y="337" fill="#24211d">User</text>
<rect x="610" y="328" width="12" height="10" fill="#c08321"/><text x="626" y="337" fill="#24211d">Order</text>
<rect x="730" y="328" width="12" height="10" fill="#b5473a"/><text x="746" y="337" fill="#24211d">Product</text>
<rect x="850" y="326" width="2" height="14" fill="#111"/><text x="856" y="337" fill="#24211d">DB query</text>
<text x="10" y="314" fill="#6d675f">Trục x tính từ performance.timeOrigin. Thanh nhạt: thời gian bên gọi (composer) chờ; thanh đậm: service xử lý. 7 request ảnh (sau screen-complete) không vẽ.</text>
</svg>