<svg xmlns="http://www.w3.org/2000/svg" width="1120" height="350" font-family="Segoe UI, system-ui, sans-serif" font-size="11">
<rect width="100%" height="100%" fill="#ffffff"/>
<text x="10" y="20" font-size="14" font-weight="600" fill="#24211d">gql-batched · web · u_small · throttle RTT +100 ms</text>
<text x="10" y="38" fill="#6d675f">run 449 · rid e016fcd5-0a65-4c54-9df9-648bbc5c2a59 · t_data 171.9 ms · 1 client req · product calls 1</text>
<line x1="380" y1="56" x2="380" y2="280" stroke="#eeeae4"/>
<text x="380" y="52" text-anchor="middle" fill="#6d675f">0 ms</text>
<line x1="475.5299924372337" y1="56" x2="475.5299924372337" y2="280" stroke="#eeeae4"/>
<text x="475.5299924372337" y="52" text-anchor="middle" fill="#6d675f">100 ms</text>
<line x1="571.0599848744674" y1="56" x2="571.0599848744674" y2="280" stroke="#eeeae4"/>
<text x="571.0599848744674" y="52" text-anchor="middle" fill="#6d675f">200 ms</text>
<line x1="666.5899773117012" y1="56" x2="666.5899773117012" y2="280" stroke="#eeeae4"/>
<text x="666.5899773117012" y="52" text-anchor="middle" fill="#6d675f">300 ms</text>
<line x1="762.1199697489349" y1="56" x2="762.1199697489349" y2="280" stroke="#eeeae4"/>
<text x="762.1199697489349" y="52" text-anchor="middle" fill="#6d675f">400 ms</text>
<line x1="857.6499621861686" y1="56" x2="857.6499621861686" y2="280" stroke="#eeeae4"/>
<text x="857.6499621861686" y="52" text-anchor="middle" fill="#6d675f">500 ms</text>
<line x1="953.1799546234023" y1="56" x2="953.1799546234023" y2="280" stroke="#eeeae4"/>
<text x="953.1799546234023" y="52" text-anchor="middle" fill="#6d675f">600 ms</text>
<line x1="1048.709947060636" y1="56" x2="1048.709947060636" y2="280" stroke="#eeeae4"/>
<text x="1048.709947060636" y="52" text-anchor="middle" fill="#6d675f">700 ms</text>
<text x="10" y="77" fill="#24211d">tải :5173/styles.css</text>
<rect x="498.6482506072222" y="68" width="130.7805596460392" height="10" rx="2" fill="#b9b2a6"><title>tải :5173/styles.css: 124.2 → 261.1 ms (136.9 ms)</title></rect>
<rect x="0" y="82" width="1120" height="18" fill="#faf9f7"/>
<text x="10" y="95" fill="#24211d">tải :5173/render.js</text>
<rect x="505.43088006990996" y="86" width="124.38005015345624" height="10" rx="2" fill="#b9b2a6"><title>tải :5173/render.js: 131.3 → 261.5 ms (130.2 ms)</title></rect>
<text x="10" y="113" fill="#24211d">tải :5173/adapters/bff.js</text>
<rect x="647.1018588541497" y="104" width="107.18465151475402" height="10" rx="2" fill="#b9b2a6"><title>tải :5173/adapters/bff.js: 279.6 → 391.8 ms (112.2 ms)</title></rect>
<rect x="0" y="118" width="1120" height="18" fill="#faf9f7"/>
<text x="10" y="131" fill="#24211d">tải :5173/adapters/baseline.js</text>
<rect x="647.1018588541497" y="122" width="106.89806153762038" height="10" rx="2" fill="#b9b2a6"><title>tải :5173/adapters/baseline.js: 279.6 → 391.5 ms (111.9 ms)</title></rect>
<text x="10" y="149" fill="#24211d">tải :5173/adapters/graphql.js</text>
<rect x="647.1973888471207" y="140" width="107.37571149891687" height="10" rx="2" fill="#b9b2a6"><title>tải :5173/adapters/graphql.js: 279.7 → 392.1 ms (112.4 ms)</title></rect>
<rect x="0" y="154" width="1120" height="18" fill="#faf9f7"/>
<text x="10" y="167" fill="#24211d">tải :5173/adapters/http.js</text>
<rect x="757.3434701270733" y="158" width="115.59129084905271" height="10" rx="2" fill="#b9b2a6"><title>tải :5173/adapters/http.js: 395.0 → 516.0 ms (121.0 ms)</title></rect>
<text x="10" y="185" fill="#24211d">browser fetch :4020/graphql</text>
<rect x="902.6445886237499" y="176" width="120.6543804489379" height="10" rx="2" fill="#2f6db0"><title>browser fetch :4020/graphql: 547.1 → 673.4 ms (126.3 ms)</title></rect>
<rect x="0" y="190" width="1120" height="18" fill="#faf9f7"/>
<text x="10" y="203" fill="#24211d">graphql OPTIONS /graphql</text>
<rect x="905.054855112981" y="194" width="1.5" height="10" rx="2" fill="#8a6fc4"><title>graphql OPTIONS /graphql: 549.6 → 550.5 ms (0.9 ms)</title></rect>
<text x="10" y="221" fill="#24211d">graphql POST /graphql</text>
<rect x="907.6159265166756" y="212" width="22.40850017912453" height="10" rx="2" fill="#6b4f3a"><title>graphql POST /graphql: 552.3 → 575.8 ms (23.5 ms)</title></rect>
<rect x="0" y="226" width="1120" height="18" fill="#faf9f7"/>
<text x="10" y="239" fill="#24211d">user GET /users/u_small</text>
<rect x="911.5012637823295" y="232" width="4.834772917248529" height="6" rx="2" fill="#3f8f5f" opacity="0.28"><title>Bên gọi chờ: 556.4 → 561.4 ms (5.1 ms)</title></rect>
<rect x="912.9694310244985" y="230" width="1.9766032370740731" height="10" rx="2" fill="#3f8f5f"><title>user GET /users/u_small: 557.9 → 560.0 ms (2.1 ms)</title></rect>
<rect x="912.2322784402132" y="228" width="2" height="14" fill="#111"><title>DB query @ 558.18 ms</title></rect>
<text x="10" y="257" fill="#24211d">order GET /users/u_small/orders</text>
<rect x="916.6082468008797" y="250" width="5.006726903635354" height="6" rx="2" fill="#c08321" opacity="0.28"><title>Bên gọi chờ: 561.7 → 567.0 ms (5.2 ms)</title></rect>
<rect x="918.1099988060148" y="248" width="2.774241357521646" height="10" rx="2" fill="#c08321"><title>order GET /users/u_small/orders: 563.3 → 566.2 ms (2.9 ms)</title></rect>
<rect x="917.3583861154524" y="246" width="2" height="14" fill="#111"><title>DB query @ 563.55 ms</title></rect>
<rect x="918.175148892589" y="246" width="2" height="14" fill="#111"><title>DB query @ 564.40 ms</title></rect>
<rect x="0" y="262" width="1120" height="18" fill="#faf9f7"/>
<text x="10" y="275" fill="#24211d">product GET /products?ids=p_001,p_002,p_003,p_004,p_005,p_006</text>
<rect x="923.3823401366693" y="268" width="4.571110138121526" height="6" rx="2" fill="#b5473a" opacity="0.28"><title>Bên gọi chờ: 568.8 → 573.6 ms (4.8 ms)</title></rect>
<rect x="925.0014055846656" y="266" width="2.4694129880991795" height="10" rx="2" fill="#b5473a"><title>product GET /products?ids=p_001,p_002,p_003,p_004,p_005,p_006: 570.5 → 573.1 ms (2.6 ms)</title></rect>
<rect x="924.5231355482449" y="264" width="2" height="14" fill="#111"><title>DB query @ 571.05 ms</title></rect>
<line x1="901.4982287152147" y1="56" x2="901.4982287152147" y2="286" stroke="#2f6db0" stroke-width="1.5" stroke-dasharray="4 3"/>
<text x="904.4982287152147" y="298" text-anchor="start" fill="#2f6db0" font-weight="600">data-start 545.9 ms</text>
<line x1="1065.7142857142858" y1="56" x2="1065.7142857142858" y2="286" stroke="#b5473a" stroke-width="1.5" stroke-dasharray="4 3"/>
<text x="1062.7142857142858" y="312" text-anchor="end" fill="#b5473a" font-weight="600">screen-complete 717.8 ms</text>
<rect x="10" y="328" width="12" height="10" fill="#b9b2a6"/><text x="26" y="337" fill="#24211d">tải trang</text>
<rect x="130" y="328" width="12" height="10" fill="#2f6db0"/><text x="146" y="337" fill="#24211d">browser fetch</text>
<rect x="250" y="328" width="12" height="10" fill="#8a6fc4"/><text x="266" y="337" fill="#24211d">CORS preflight</text>
<rect x="370" y="328" width="12" height="10" fill="#6b4f3a"/><text x="386" y="337" fill="#24211d">composer</text>
<rect x="490" y="328" width="12" height="10" fill="#3f8f5f"/><text x="506" y="337" fill="#24211d">User</text>
<rect x="610" y="328" width="12" height="10" fill="#c08321"/><text x="626" y="337" fill="#24211d">Order</text>
<rect x="730" y="328" width="12" height="10" fill="#b5473a"/><text x="746" y="337" fill="#24211d">Product</text>
<rect x="850" y="326" width="2" height="14" fill="#111"/><text x="856" y="337" fill="#24211d">DB query</text>
<text x="10" y="314" fill="#6d675f">Trục x tính từ performance.timeOrigin. Thanh nhạt: thời gian bên gọi (composer) chờ; thanh đậm: service xử lý. 7 request ảnh (sau screen-complete) không vẽ.</text>
</svg>